<?xml version="1.0" encoding="UTF-8" standalone="no"?>
<!DOCTYPE svg PUBLIC "-//W3C//DTD SVG 1.1//EN" "http://www.w3.org/Graphics/SVG/1.1/DTD/svg11.dtd">
<svg width="100%" height="100%" viewBox="0 0 936 425" version="1.1" xmlns="http://www.w3.org/2000/svg" xmlns:xlink="http://www.w3.org/1999/xlink" xml:space="preserve" xmlns:serif="http://www.serif.com/" style="fill-rule:evenodd;clip-rule:evenodd;stroke-linejoin:round;stroke-miterlimit:2;">
    <g>
        <path d="M112,403C112,391.2 111.8,389 110.5,389C109.7,389 109,388.1 109,387C109,385 109.7,385 467,385C824.3,385 825,385 825,387C825,388.1 824.3,389 823.5,389C822.2,389 822,391.2 822,403L822,417L112,417L112,403Z" style="fill:rgb(50,153,204);fill-rule:nonzero;"/>
        <path d="M111.8,352.4C107.8,350.3 106,346.1 106,338.8C106.1,331.7 107.3,328.7 111.6,325.9C114.5,324 120.2,324 467,324C813.8,324 819.5,324 822.4,325.9C826.7,328.7 827.9,331.7 828,338.8C828,350.5 824.2,354 811,354L803,354L803,349.5C803,346.1 802.5,344.8 801.1,344C798.4,342.6 141.6,342.6 138.9,344C137.5,344.8 137,346.1 137,349.5L137,354L125.8,354C117.8,353.9 113.7,353.5 111.8,352.4Z" style="fill:rgb(50,153,204);fill-rule:nonzero;"/>
        <path d="M94.5,293.8C94.2,293.1 94.1,256.7 94.2,213L94.5,133.5L838.5,133.5L838.5,294.5L830.3,294.8L822,295.1L822,158L111,158L111,295L103,295C97.5,295 94.8,294.6 94.5,293.8Z" style="fill:rgb(50,153,204);fill-rule:nonzero;"/>
        <path d="M859.2,267.8C857.5,266.1 857.5,185.9 859.2,184.2C860.8,182.6 869.2,182.6 870.8,184.2C872.5,185.9 872.5,266.1 870.8,267.8C870.1,268.5 867.5,269 865,269C862.5,269 859.9,268.5 859.2,267.8Z" style="fill:rgb(50,153,204);fill-rule:nonzero;"/>
        <path d="M167.5,116.1C157.8,112.1 156,90.5 164.6,82.8C172.5,75.8 190.6,76.6 196.6,84.2L198.5,86.7L200.4,84.2C206.6,76 226.2,76 232.6,84.2L234.5,86.7L236.4,84.2C242.6,76 262.2,76 268.6,84.2L270.5,86.7L272.4,84.2C278.6,76 298.2,76 304.6,84.2L306.5,86.7L308.4,84.2C314.6,76 334.2,76 340.6,84.2L342.5,86.7L344.4,84.2C350.6,76 370.2,76 376.6,84.2L378.5,86.7L380.4,84.2C386.6,76 407.1,75.9 413.6,84.2L415.5,86.7L417.4,84.2C423.6,76 443.2,76 449.6,84.2L451.5,86.7L453.4,84.2C459.6,76 479.2,76 485.6,84.2L487.5,86.7L489.4,84.2C495.6,76 515.2,76 521.6,84.2L523.5,86.7L525.4,84.2C531.6,76 551.2,76 557.6,84.2L559.5,86.7L561.4,84.2C567.6,76 587.2,76 593.6,84.2L595.5,86.7L597.4,84.2C603.6,76 624.1,75.9 630.6,84.2L632.5,86.7L634.4,84.2C640.6,76 660.2,76 666.6,84.2L668.5,86.7L670.4,84.2C676.6,76 696.2,76 702.6,84.2L704.5,86.7L706.4,84.2C712.6,76 732.2,76 738.6,84.2L740.5,86.7L742.4,84.2C748.4,76.3 768.3,75.9 775.2,83.6C784.2,93.8 779.4,117 768.3,117C765.2,117 765,116.8 765,113.7C765,111.6 765.8,109.6 767,108.5C769.8,105.9 769.5,102.8 766,99.5C762.1,95.7 757.9,95.7 754,99.5C750.5,102.8 750.2,105.9 753,108.5C754.3,109.6 755,111.6 755,113.8L755,117.3L750.3,116.7C746.8,116.3 744.9,115.5 743,113.3L740.5,110.5L737.6,113.8C735.5,116.2 734,117 731.4,117C728.2,117 728,116.8 728,113.7C728,111.6 728.8,109.6 730,108.5C732.8,106 732.5,102.8 729.1,99.6C725.3,95.9 721.7,95.9 717.9,99.6C714.5,102.8 714.2,106 717,108.5C718.3,109.6 719,111.6 719,113.8L719,117.3L714.3,116.7C710.8,116.3 708.9,115.5 707,113.3L704.5,110.5L701.6,113.8C699.5,116.2 698,117 695.4,117C692.2,117 692,116.8 692,113.7C692,111.6 692.8,109.6 694,108.5C695.1,107.5 696,105.7 696,104.5C696,101.6 690.7,96.7 687.5,96.7C684.3,96.7 679,101.6 679,104.5C679,105.7 679.9,107.5 681,108.5C682.3,109.6 683,111.6 683,113.8L683,117.3L678.3,116.7C674.8,116.3 672.9,115.5 671,113.3L668.5,110.5L665.6,113.8C663.5,116.2 662,117 659.4,117C656.2,117 656,116.8 656,113.7C656,111.6 656.8,109.6 658,108.5C659.1,107.5 660,105.7 660,104.5C660,101.6 654.7,96.8 651.5,96.8C648.3,96.7 643,101.6 643,104.5C643,105.7 643.9,107.5 645,108.5C646.3,109.6 647,111.6 647,113.8L647,117.3L642.3,116.7C638.8,116.3 636.9,115.5 635,113.3L632.5,110.5L629.6,113.8C627.5,116.2 626,117 623.4,117C620.2,117 620,116.8 620,113.7C620,111.6 620.8,109.6 622,108.5C624.8,105.9 624.5,102.8 621,99.5C617.1,95.7 612.9,95.7 609,99.5C605.5,102.8 605.2,105.9 608,108.5C609.3,109.6 610,111.6 610,113.8L610,117.3L605.3,116.7C601.8,116.3 599.9,115.5 598,113.3L595.5,110.5L592.6,113.8C590.5,116.2 589,117 586.4,117C583.2,117 583,116.8 583,113.7C583,111.6 583.8,109.6 585,108.5C587.8,106 587.5,102.8 584.1,99.6C580.3,95.9 576.7,95.9 572.9,99.6C569.5,102.8 569.2,106 572,108.5C573.3,109.6 574,111.6 574,113.8L574,117.3L569.3,116.7C565.8,116.3 563.9,115.5 562,113.3L559.5,110.5L556.6,113.8C554.5,116.2 553,117 550.4,117C547.2,117 547,116.8 547,113.7C547,111.6 547.8,109.6 549,108.5C550.1,107.5 551,105.7 551,104.5C551,101.6 545.7,96.8 542.5,96.8C539.3,96.7 534,101.6 534,104.5C534,105.7 534.9,107.5 536,108.5C537.3,109.6 538,111.6 538,113.8L538,117.3L533.3,116.7C529.8,116.3 527.9,115.5 526,113.3L523.5,110.5L520.6,113.7C518.5,116.2 517,117 514.4,117C511.2,117 511,116.8 511,113.7C511,111.6 511.8,109.6 513,108.5C515.8,106 515.5,102.8 512.1,99.6C508.3,95.9 504.7,95.9 500.9,99.6C497.5,102.8 497.2,106 500,108.5C501.3,109.6 502,111.6 502,113.8L502,117.3L497.3,116.7C493.8,116.3 491.9,115.5 490,113.3L487.5,110.5L484.6,113.7C482.5,116.2 481,117 478.4,117C475.2,117 475,116.8 475,113.7C475,111.6 475.8,109.6 477,108.5C479.8,106 479.5,102.8 476.1,99.6C472.3,95.9 468.7,95.9 464.9,99.6C461.5,102.8 461.2,106 464,108.5C465.3,109.6 466,111.6 466,113.8L466,117.3L461.3,116.7C457.8,116.3 455.9,115.5 454,113.3L451.5,110.5L448.6,113.7C446.5,116.2 445,117 442.4,117C439.2,117 439,116.8 439,113.7C439,111.6 439.8,109.6 441,108.5C443.8,106 443.5,102.8 440.1,99.6C436.3,95.9 432.7,95.9 428.9,99.6C425.5,102.8 425.2,106 428,108.5C429.3,109.6 430,111.6 430,113.8L430,117.3L425.3,116.7C421.8,116.3 419.9,115.5 418,113.3L415.5,110.5L412.6,113.8C410.5,116.2 409,117 406.4,117C403.2,117 403,116.8 403,113.7C403,111.6 403.8,109.6 405,108.5C407.8,105.9 407.5,102.8 404,99.5C400.1,95.7 395.9,95.7 392,99.5C388.5,102.8 388.2,105.9 391,108.5C392.3,109.6 393,111.6 393,113.8L393,117.3L388.3,116.7C384.8,116.3 382.9,115.5 381,113.3L378.5,110.5L375.6,113.8C373.5,116.2 372,117 369.4,117C366.2,117 366,116.8 366,113.7C366,111.6 366.8,109.6 368,108.5C369.1,107.5 370,105.7 370,104.5C370,101.6 364.7,96.8 361.5,96.8C358.3,96.7 353,101.6 353,104.5C353,105.7 353.9,107.5 355,108.5C356.3,109.6 357,111.6 357,113.8L357,117.3L352.3,116.7C348.8,116.3 346.9,115.5 345,113.3L342.5,110.5L339.6,113.8C337.5,116.2 336,117 333.4,117C330.2,117 330,116.8 330,113.7C330,111.6 330.8,109.6 332,108.5C334.8,106 334.5,102.8 331.1,99.6C327.3,95.9 323.7,95.9 319.9,99.6C316.5,102.8 316.2,106 319,108.5C320.3,109.6 321,111.6 321,113.8L321,117.3L316.3,116.7C312.8,116.3 310.9,115.5 309,113.3L306.5,110.5L303.6,113.8C301.5,116.2 300,117 297.4,117C294.2,117 294,116.8 294,113.7C294,111.6 294.8,109.6 296,108.5C298.8,106 298.5,102.8 295.1,99.6C291.3,95.9 287.7,95.9 283.9,99.6C280.5,102.8 280.2,106 283,108.5C284.3,109.6 285,111.6 285,113.8L285,117.3L280.3,116.7C276.8,116.3 274.9,115.5 273,113.3L270.5,110.5L267.6,113.8C265.5,116.2 264,117 261.4,117C258.2,117 258,116.8 258,113.7C258,111.6 258.8,109.6 260,108.5C262.8,106 262.5,102.8 259.1,99.6C255.3,95.9 251.7,95.9 247.9,99.6C244.5,102.8 244.2,106 247,108.5C248.3,109.6 249,111.6 249,113.8L249,117.3L244.3,116.7C240.8,116.3 238.9,115.5 237,113.3L234.5,110.5L231.6,113.8C229.5,116.2 228,117 225.4,117C222.2,117 222,116.8 222,113.7C222,111.6 222.8,109.6 224,108.5C225.1,107.5 226,105.7 226,104.5C226,101.6 220.7,96.7 217.5,96.8C214.3,96.8 209,101.6 209,104.5C209,105.7 209.9,107.5 211,108.5C212.3,109.6 213,111.6 213,113.8L213,117.3L208.3,116.7C204.8,116.3 202.9,115.5 201,113.3L198.5,110.5L195.6,113.8C193.5,116.2 192,117 189.4,117C186.2,117 186,116.8 186,113.7C186,111.6 186.8,109.6 188,108.5C189.1,107.5 190,105.7 190,104.5C190,101.3 184.7,96.7 181,96.7C177.3,96.7 172,101.3 172,104.5C172,105.7 172.9,107.5 174,108.5C175.2,109.6 176,111.6 176,113.7C176,116.8 175.8,117 172.8,116.9C171,116.9 168.6,116.5 167.5,116.1Z" style="fill:rgb(50,153,204);fill-rule:nonzero;"/>
    </g>
    <g>
        <path d="M78.9,387.8C70.2,386.3 62.1,378.2 60.1,368.9C59.5,366.2 59,356.4 59,347.1C59,325.6 60.1,321.6 67.6,314.3L72.9,309L73.2,227.8C73.5,138.1 73.1,143.5 79.9,135.7C85.3,129.6 90.3,127.9 104.5,127.2L117,126.7L117,102.5C117,89.2 117.5,75.9 118,73C119.2,66.5 122.7,61.7 128.3,58.7L132.5,56.5L801.5,56.5L805.7,58.7C811.3,61.7 814.8,66.5 816,73C816.5,75.9 817,89.2 817,102.5L817,126.7L829.8,127.2C843.7,127.8 847.5,128.9 853.3,133.9C859.8,139.7 861.3,144.3 861.8,161L862.3,175.8L865.9,176.9C871,178.4 877.4,184.1 880,189.5C881.7,193 882.3,196.5 882.7,205.5C883.2,214.2 883.6,217 884.6,217C885.7,217 886,218.9 886,224.5C886,230.1 885.7,232 884.6,232C883.6,232 883.2,234.9 882.8,244.5C882.3,254.5 881.8,257.8 880,261.5C877.4,266.9 871,272.6 865.8,274.2L862,275.3L862,292.4L862.1,309.5L866,312.2C875.2,318.6 877.5,327 876.8,352.1C876.3,369.7 874.9,374.2 868.3,380.1C863.3,384.4 860,385.6 849.5,386.9C839.2,388.2 86.2,389 78.9,387.8ZM133.4,349.5C132.6,347.5 135.8,347.6 138.4,349.5C140.1,350.8 181.7,351 470,351C758.3,351 799.9,350.8 801.6,349.5C804.2,347.6 807.4,347.5 806.6,349.5C806.2,350.7 807,351 811.1,351C819.8,351 825,346.4 825,338.8C824.9,334.6 823.1,331.4 819.4,328.9C816.5,327 810.8,327 467,327C123.2,327 117.5,327 114.6,328.9C109.1,332.5 107.5,339.1 110.5,345C112.8,349.5 116.4,350.9 125.7,351C132.6,351 133.8,350.8 133.4,349.5ZM822,293.5C822,290.2 822.4,289 823.5,289C824.3,289 825,289.7 825,290.6C825,291.8 826,292 830.3,291.8L835.5,291.5L835.5,136.5L97.5,136.5L97.5,291.5L102.8,291.8C107,292 108,291.8 108,290.6C108,289.7 108.7,289 109.5,289C110.6,289 111,290.2 111,293.5L111,298L822,298L822,293.5ZM867.9,264.6C868.7,263.7 868.9,252.5 868.8,225.5C868.5,190.8 868.4,187.6 866.8,186.6C865.5,185.8 864.5,185.8 863.3,186.6C861.6,187.6 861.5,190.8 861.2,225.5C861,264.5 861.1,266 865,266C866,266 867.3,265.4 867.9,264.6ZM171.3,111.8C170.2,110.5 169,108.6 168.6,107.5C167.9,105.6 168,105.6 170.2,107.6C171.5,108.8 174.4,110.4 176.7,111.3C182.8,113.7 187.6,111.6 192.2,104.5L194.2,101.5L193.6,105.4C193.3,107.5 192,110.5 190.8,111.9L188.5,114.5L191.4,112C193,110.6 195.1,107.6 196.2,105.3C197.2,102.9 198.3,101 198.5,101C198.7,101 199.8,102.9 200.8,105.3C202.8,109.7 205.2,112.2 208.5,113.4C210.4,114.1 210.4,114 208.4,111.8C207.2,110.5 206,108.6 205.6,107.5C204.9,105.6 205,105.6 207.2,107.6C208.5,108.8 211.3,110.4 213.5,111.3C216.9,112.6 218,112.6 220.5,111.5C223.5,110.2 226.7,107.2 228.9,103.5C230,101.8 230.1,102 229.6,105.4C229.3,107.5 228,110.5 226.8,111.9L224.5,114.5L227.4,112C229,110.6 231.1,107.6 232.2,105.3C233.2,102.9 234.3,101 234.5,101C234.7,101 235.8,102.9 236.8,105.3C238.8,109.7 241.2,112.2 244.5,113.4C246.4,114.1 246.4,114 244.4,111.8C243.2,110.5 242,108.6 241.6,107.5C240.9,105.6 241,105.6 243.2,107.6C244.5,108.8 247.3,110.4 249.5,111.3C252.9,112.6 254,112.6 256.5,111.5C259.5,110.2 262.7,107.2 264.9,103.5C266,101.8 266.1,102 265.6,105.4C265.3,107.5 264,110.5 262.8,111.9L260.5,114.5L263.4,112C265,110.6 267.1,107.6 268.2,105.3C269.2,102.9 270.3,101 270.5,101C270.7,101 271.8,102.9 272.8,105.3C274.8,109.7 277.2,112.2 280.5,113.4C282.4,114.1 282.4,114 280.4,111.8C279.2,110.5 278,108.6 277.6,107.5C276.9,105.6 277,105.6 279.2,107.6C280.5,108.8 283.3,110.4 285.5,111.3C288.9,112.6 290,112.6 292.5,111.5C295.5,110.2 298.7,107.2 300.9,103.5C302,101.8 302.1,102 301.6,105.4C301.3,107.5 300,110.5 298.8,111.9L296.5,114.5L299.4,112C301,110.6 303.1,107.6 304.2,105.3C305.2,102.9 306.3,101 306.5,101C306.7,101 307.8,102.9 308.8,105.3C310.8,109.7 313.2,112.2 316.5,113.4C318.4,114.1 318.4,114 316.4,111.8C315.2,110.5 314,108.6 313.6,107.5C312.9,105.6 313,105.6 315.2,107.6C316.5,108.8 319.3,110.4 321.5,111.3C324.9,112.6 326,112.6 328.5,111.5C331.5,110.2 334.7,107.2 336.9,103.5C338,101.8 338.1,102 337.6,105.4C337.3,107.5 336,110.5 334.8,111.9L332.5,114.5L335.4,112C337,110.6 339.1,107.6 340.2,105.3C341.2,102.9 342.3,101 342.5,101C342.7,101 343.8,102.9 344.8,105.3C346.8,109.7 349.2,112.2 352.5,113.4C354.4,114.1 354.4,114 352.4,111.8C351.2,110.5 350,108.6 349.6,107.5C348.9,105.6 349,105.6 351.2,107.6C352.5,108.8 355.3,110.4 357.5,111.3C360.9,112.6 362,112.6 364.5,111.5C367.5,110.2 370.7,107.2 372.9,103.5C374,101.8 374.1,102 373.6,105.4C373.3,107.5 372,110.5 370.8,111.9L368.5,114.5L371.4,112C373,110.6 375.1,107.6 376.2,105.3C377.2,102.9 378.3,101 378.5,101C378.7,101 379.8,102.9 380.8,105.3C382.8,109.7 385.2,112.2 388.5,113.4C390.4,114.1 390.4,114 388.4,111.8C387.2,110.5 386,108.6 385.6,107.5C384.9,105.6 385,105.6 387.2,107.6C388.5,108.8 391.4,110.4 393.7,111.3C399.8,113.7 404.6,111.6 409.2,104.5L411.2,101.5L410.6,105.4C410.3,107.5 409,110.5 407.8,111.9L405.5,114.5L408.4,112C410,110.6 412.1,107.6 413.2,105.3C414.2,102.9 415.3,101 415.5,101C415.7,101 416.8,102.9 417.8,105.3C419.8,109.7 422.2,112.2 425.5,113.4C427.4,114.1 427.4,114 425.4,111.8C424.2,110.5 423,108.6 422.6,107.5C421.9,105.6 422,105.6 424.2,107.6C425.5,108.8 428.3,110.4 430.5,111.3C433.9,112.6 435,112.6 437.5,111.5C440.5,110.2 443.7,107.2 445.9,103.5C447,101.8 447.1,102 446.6,105.4C446.3,107.5 445,110.5 443.8,111.9L441.5,114.5L444.4,112C446,110.6 448.1,107.6 449.2,105.3C450.2,102.9 451.3,101 451.5,101C451.7,101 452.8,102.9 453.8,105.2C455.8,109.7 458.2,112.2 461.5,113.4C463.4,114.1 463.4,114 461.4,111.8C460.2,110.5 459,108.6 458.6,107.5C457.9,105.6 458,105.6 460.2,107.6C461.5,108.8 464.3,110.4 466.5,111.3C469.9,112.6 471,112.6 473.5,111.5C476.5,110.2 479.7,107.2 481.9,103.5C483,101.8 483.1,102 482.6,105.4C482.3,107.5 481,110.5 479.8,111.9L477.5,114.5L480.4,112C482,110.6 484.1,107.6 485.2,105.3C486.2,102.9 487.3,101 487.5,101C487.7,101 488.8,102.9 489.8,105.2C491.8,109.7 494.2,112.2 497.5,113.4C499.4,114.1 499.4,114 497.4,111.8C496.2,110.5 495,108.6 494.6,107.5C493.9,105.6 494,105.6 496.2,107.6C497.5,108.8 500.3,110.4 502.5,111.3C505.9,112.6 507,112.6 509.5,111.5C512.5,110.2 515.7,107.2 517.9,103.5C519,101.8 519.1,102 518.6,105.4C518.3,107.5 517,110.5 515.8,111.9L513.5,114.5L516.4,112C518,110.6 520.1,107.6 521.2,105.3C522.2,102.9 523.3,101 523.5,101C523.7,101 524.8,102.9 525.8,105.2C527.8,109.7 530.2,112.2 533.5,113.4C535.4,114.1 535.4,114 533.4,111.8C532.2,110.5 531,108.6 530.6,107.5C529.9,105.6 530,105.6 532.2,107.6C533.5,108.8 536.3,110.4 538.5,111.3C541.9,112.6 543,112.6 545.5,111.5C548.5,110.2 551.7,107.2 553.9,103.5C555,101.8 555.1,102 554.6,105.4C554.3,107.5 553,110.5 551.8,111.9L549.5,114.5L552.4,112C554,110.6 556.1,107.6 557.2,105.2C558.2,102.9 559.3,101 559.5,101C559.7,101 560.8,102.9 561.8,105.2C563.8,109.7 566.2,112.2 569.5,113.4C571.4,114.1 571.4,114 569.4,111.8C568.2,110.5 567,108.6 566.6,107.5C565.9,105.6 566,105.6 568.2,107.6C569.5,108.8 572.3,110.4 574.5,111.3C577.9,112.6 579,112.6 581.5,111.5C584.5,110.2 587.7,107.2 589.9,103.5C591,101.8 591.1,102 590.6,105.4C590.3,107.5 589,110.5 587.8,111.9L585.5,114.5L588.4,112C590,110.6 592.1,107.6 593.2,105.2C594.2,102.9 595.3,101 595.5,101C595.7,101 596.8,102.9 597.8,105.2C599.8,109.7 602.2,112.2 605.5,113.4C607.4,114.1 607.4,114 605.4,111.8C604.2,110.5 603,108.6 602.6,107.5C601.9,105.6 602,105.6 604.2,107.6C605.5,108.8 608.4,110.4 610.7,111.3C616.8,113.7 621.6,111.6 626.2,104.5L628.2,101.5L627.6,105.4C627.3,107.5 626,110.5 624.8,111.9L622.5,114.5L625.4,112C627,110.6 629.1,107.6 630.2,105.3C631.2,102.9 632.3,101 632.5,101C632.7,101 633.8,102.9 634.8,105.3C636.8,109.7 639.2,112.2 642.5,113.4C644.4,114.1 644.4,114 642.4,111.8C641.2,110.5 640,108.6 639.6,107.5C638.9,105.6 639,105.6 641.2,107.6C642.5,108.8 645.3,110.4 647.5,111.3C650.9,112.6 652,112.6 654.5,111.5C657.5,110.2 660.7,107.2 662.9,103.5C664,101.8 664.1,102 663.6,105.4C663.3,107.5 662,110.5 660.8,111.9L658.5,114.5L661.4,112C663,110.6 665.1,107.6 666.2,105.3C667.2,102.9 668.3,101 668.5,101C668.7,101 669.8,102.9 670.8,105.3C672.8,109.7 675.2,112.2 678.5,113.4C680.4,114.1 680.4,114 678.4,111.8C677.2,110.5 676,108.6 675.6,107.5C674.9,105.6 675,105.6 677.2,107.6C678.5,108.8 681.3,110.4 683.5,111.3C686.9,112.6 688,112.6 690.5,111.5C693.5,110.2 696.7,107.2 698.9,103.5C700,101.8 700.1,102 699.6,105.4C699.3,107.5 698,110.5 696.8,111.9L694.5,114.5L697.4,112C699,110.6 701.1,107.6 702.2,105.3C703.2,102.9 704.3,101 704.5,101C704.7,101 705.8,102.9 706.8,105.2C708.8,109.7 711.2,112.2 714.5,113.4C716.4,114.1 716.4,114 714.4,111.8C713.2,110.5 712,108.6 711.6,107.5C710.9,105.6 711,105.6 713.2,107.6C714.5,108.8 717.3,110.4 719.5,111.3C722.9,112.6 724,112.6 726.5,111.5C729.5,110.2 732.7,107.2 734.9,103.5C736,101.8 736.1,102 735.6,105.4C735.3,107.5 734,110.5 732.8,111.9L730.5,114.5L733.4,112C735,110.6 737.1,107.6 738.2,105.2C739.2,102.9 740.3,101 740.5,101C740.7,101 741.8,102.9 742.8,105.3C744.8,109.7 747.2,112.2 750.5,113.4C752.4,114.1 752.4,114 750.4,111.8C749.2,110.5 748,108.6 747.6,107.5C746.9,105.6 747,105.6 749.2,107.6C750.5,108.8 753.4,110.4 755.7,111.3C761.8,113.7 766.6,111.6 771.2,104.5L773.2,101.5L772.6,105.4C772.3,107.5 771.3,110.3 770.3,111.4C769.3,112.6 769.9,112.2 771.7,110.4C780,102 777.7,88.7 767,83.2C761.7,80.5 756.9,80.4 751.5,82.9C746.7,85.1 744.6,87.3 742.5,92.3C741.7,94.3 740.8,96 740.5,96C740.2,96 739.3,94.2 738.4,92C732.9,78.3 714,77.6 707.3,90.8C706.1,93.2 704.9,95.1 704.5,95.1C704.1,95.1 702.9,93.2 701.7,90.8C695,77.6 676.1,78.3 670.6,92C669.7,94.2 668.8,96 668.5,96C668.2,96 667.3,94.2 666.4,92C660.9,78.3 642,77.6 635.3,90.8C634.1,93.2 632.9,95.1 632.5,95.1C632.1,95.1 630.9,93.2 629.7,90.8C623.2,77.9 604.8,77.9 598.3,90.8C597.1,93.2 595.9,95.1 595.5,95.1C595.1,95.1 593.9,93.2 592.7,90.8C586,77.6 567.1,78.4 561.6,92.1C559.7,96.8 559.7,96.8 556.7,90.9C550,77.6 531.1,78.3 525.6,92C524.7,94.2 523.8,96 523.5,96C523.2,96 522.3,94.2 521.4,92C515.9,78.3 497,77.6 490.3,90.8C489.1,93.2 487.9,95.1 487.5,95.1C487.1,95.1 485.9,93.2 484.7,90.8C478,77.6 459.1,78.3 453.6,92C452.7,94.2 451.8,96 451.5,96C451.2,96 450.3,94.2 449.4,92C443.9,78.3 425,77.6 418.3,90.8C417.1,93.2 415.9,95.1 415.5,95.1C415.1,95.1 413.9,93.2 412.7,90.8C406.2,77.9 387.8,77.9 381.3,90.8C380.1,93.2 378.9,95.1 378.5,95.1C378.1,95.1 376.9,93.2 375.7,90.8C369,77.6 350.1,78.3 344.6,92C343.7,94.2 342.8,96 342.5,96C342.2,96 341.3,94.2 340.4,92C334.9,78.3 316,77.6 309.3,90.8C308.1,93.2 306.8,95 306.4,94.8C305.9,94.6 304.6,92.7 303.5,90.5C297,77.6 278,78.5 272.6,92C271.7,94.2 270.8,96 270.5,96C270.2,96 269.3,94.2 268.4,92C262.9,78.3 244,77.6 237.3,90.8C236.1,93.2 234.9,95.1 234.5,95.1C234.1,95.1 232.9,93.2 231.7,90.8C225,77.6 206.1,78.3 200.6,92C199.7,94.2 198.8,96 198.5,96C198.2,96 197.3,94.3 196.5,92.3C194.4,87.3 192.3,85.1 187.5,82.9C171.3,75.4 155.4,93.5 165.3,108.1C166.5,110 168.7,112 170,112.7C173.5,114.5 173.6,114.3 171.3,111.8Z" style="fill:rgb(205,32,2);fill-rule:nonzero;"/>
    </g>
    <g>
        <path d="M883,232L883,217L910,217L910,167L921,167L921,196C921,215.5 920.6,225.7 919.9,227.4C918.1,231.2 914.1,232 897.9,232L883,232Z" style="fill:rgb(147,147,147);fill-rule:nonzero;"/>
    </g>
    <g>
        <path d="M135,352C133.9,350.9 133,348.7 133,347C133,345.3 133.9,343.1 135,342C137,340 138.3,340 470,340C801.7,340 803,340 805,342C806.1,343.1 807,345.3 807,347C807,348.7 806.1,350.9 805,352C803,354 801.7,354 470,354C138.3,354 137,354 135,352Z" style="fill:white;fill-rule:nonzero;"/>
        <path d="M108,301L108,155L825,155L825,301L108,301Z" style="fill:white;fill-rule:nonzero;"/>
        <path d="M175.5,115.1C171.2,113.2 168.5,109.1 168.5,104.4C168.5,100.8 169.1,99.5 171.8,96.8C174.7,93.8 175.6,93.5 181,93.5C186.4,93.5 187.3,93.8 190.2,96.8C192.9,99.5 193.5,100.8 193.5,104.5C193.5,110.8 189.2,115.1 182.3,115.6C179.7,115.8 176.6,115.6 175.5,115.1Z" style="fill:white;fill-rule:nonzero;"/>
        <path d="M212.5,115.1C208.2,113.2 205.5,109.1 205.5,104.4C205.5,100.8 206.1,99.5 208.8,96.8C213.6,92 221.4,92 226.2,96.8C233.2,103.7 228.9,114.7 218.9,115.6C216.5,115.8 213.6,115.6 212.5,115.1Z" style="fill:white;fill-rule:nonzero;"/>
        <path d="M248.5,115.1C244.2,113.2 241.5,109.1 241.5,104.4C241.5,100.8 242.1,99.5 244.8,96.8C249.6,92 257.4,92 262.2,96.8C269.2,103.7 264.9,114.7 254.9,115.6C252.5,115.8 249.6,115.6 248.5,115.1Z" style="fill:white;fill-rule:nonzero;"/>
        <path d="M284.5,115.1C280.2,113.2 277.5,109.1 277.5,104.4C277.5,100.8 278.1,99.5 280.8,96.8C285.6,92 293.4,92 298.2,96.8C305.2,103.7 300.9,114.7 290.9,115.6C288.5,115.8 285.6,115.6 284.5,115.1Z" style="fill:white;fill-rule:nonzero;"/>
        <path d="M320.5,115.1C316.2,113.2 313.5,109.1 313.5,104.4C313.5,100.8 314.1,99.5 316.8,96.8C321.6,92 329.4,92 334.2,96.8C341.2,103.7 336.9,114.7 326.9,115.6C324.5,115.8 321.6,115.6 320.5,115.1Z" style="fill:white;fill-rule:nonzero;"/>
        <path d="M356.5,115.1C352.2,113.2 349.5,109.1 349.5,104.4C349.5,100.8 350.1,99.5 352.8,96.8C357.6,92 365.4,92 370.2,96.8C377.2,103.7 372.9,114.7 362.9,115.6C360.5,115.8 357.6,115.6 356.5,115.1Z" style="fill:white;fill-rule:nonzero;"/>
        <path d="M392.5,115.1C388.2,113.2 385.5,109.1 385.5,104.4C385.5,100.8 386.1,99.5 388.8,96.8C391.7,93.8 392.6,93.5 398,93.5C403.4,93.5 404.3,93.8 407.2,96.8C409.9,99.5 410.5,100.8 410.5,104.5C410.5,110.8 406.2,115.1 399.3,115.6C396.7,115.8 393.6,115.6 392.5,115.1Z" style="fill:white;fill-rule:nonzero;"/>
        <path d="M429.5,115.1C425.2,113.2 422.5,109.1 422.5,104.4C422.5,100.8 423.1,99.5 425.8,96.8C430.6,92 438.4,92 443.2,96.8C450.2,103.7 445.9,114.7 435.9,115.6C433.5,115.8 430.6,115.6 429.5,115.1Z" style="fill:white;fill-rule:nonzero;"/>
        <path d="M465.5,115.1C461.2,113.2 458.5,109.1 458.5,104.4C458.5,100.8 459.1,99.5 461.8,96.8C466.6,92 474.4,92 479.2,96.8C486.2,103.7 481.9,114.7 471.9,115.6C469.5,115.8 466.6,115.6 465.5,115.1Z" style="fill:white;fill-rule:nonzero;"/>
        <path d="M501.5,115.1C497.2,113.2 494.5,109.1 494.5,104.4C494.5,100.8 495.1,99.5 497.8,96.8C502.6,92 510.4,92 515.2,96.8C522.2,103.7 517.9,114.7 507.9,115.6C505.5,115.8 502.6,115.6 501.5,115.1Z" style="fill:white;fill-rule:nonzero;"/>
        <path d="M537.5,115.1C533.2,113.2 530.5,109.1 530.5,104.4C530.5,100.8 531.1,99.5 533.8,96.8C538.6,92 546.4,92 551.2,96.8C558.2,103.7 553.9,114.7 543.9,115.6C541.5,115.8 538.6,115.6 537.5,115.1Z" style="fill:white;fill-rule:nonzero;"/>
        <path d="M573.5,115.1C569.2,113.2 566.5,109.1 566.5,104.4C566.5,100.8 567.1,99.5 569.8,96.8C574.6,92 582.4,92 587.2,96.8C594.2,103.7 589.9,114.7 579.9,115.6C577.5,115.8 574.6,115.6 573.5,115.1Z" style="fill:white;fill-rule:nonzero;"/>
        <path d="M609.5,115.1C605.2,113.2 602.5,109.1 602.5,104.4C602.5,100.8 603.1,99.5 605.8,96.8C608.7,93.8 609.6,93.5 615,93.5C620.4,93.5 621.3,93.8 624.2,96.8C626.9,99.5 627.5,100.8 627.5,104.5C627.5,110.8 623.2,115.1 616.3,115.6C613.7,115.8 610.6,115.6 609.5,115.1Z" style="fill:white;fill-rule:nonzero;"/>
        <path d="M646.5,115.1C642.2,113.2 639.5,109.1 639.5,104.4C639.5,100.8 640.1,99.5 642.8,96.8C645.7,93.9 646.7,93.5 651.5,93.5C656.3,93.5 657.3,93.9 660.2,96.8C667.2,103.7 662.9,114.7 652.9,115.6C650.5,115.8 647.6,115.6 646.5,115.1Z" style="fill:white;fill-rule:nonzero;"/>
        <path d="M682.5,115.1C678.2,113.2 675.5,109.1 675.5,104.4C675.5,100.8 676.1,99.5 678.8,96.8C681.7,93.9 682.7,93.5 687.5,93.5C692.3,93.5 693.3,93.9 696.2,96.8C703.2,103.7 698.9,114.7 688.9,115.6C686.5,115.8 683.6,115.6 682.5,115.1Z" style="fill:white;fill-rule:nonzero;"/>
        <path d="M718.5,115.1C714.2,113.2 711.5,109.1 711.5,104.4C711.5,100.8 712.1,99.5 714.8,96.8C717.7,93.9 718.7,93.5 723.5,93.5C728.3,93.5 729.3,93.9 732.2,96.8C739.2,103.7 734.9,114.7 724.9,115.6C722.5,115.8 719.6,115.6 718.5,115.1Z" style="fill:white;fill-rule:nonzero;"/>
        <path d="M754.5,115.1C750.2,113.2 747.5,109.1 747.5,104.4C747.5,100.8 748.1,99.5 750.8,96.8C753.7,93.8 754.6,93.5 760,93.5C765.4,93.5 766.3,93.8 769.2,96.8C771.9,99.5 772.5,100.8 772.5,104.5C772.5,110.8 768.2,115.1 761.3,115.6C758.7,115.8 755.6,115.6 754.5,115.1Z" style="fill:white;fill-rule:nonzero;"/>
    </g>
</svg>
