<?xml version="1.0" encoding="UTF-8" standalone="no"?>
<!DOCTYPE svg PUBLIC "-//W3C//DTD SVG 1.1//EN" "http://www.w3.org/Graphics/SVG/1.1/DTD/svg11.dtd">
<svg width="100%" height="100%" viewBox="0 0 1080 1080" version="1.1" xmlns="http://www.w3.org/2000/svg" xmlns:xlink="http://www.w3.org/1999/xlink" xml:space="preserve" xmlns:serif="http://www.serif.com/" style="fill-rule:evenodd;clip-rule:evenodd;stroke-linejoin:round;stroke-miterlimit:2;">
    <rect id="ArtBoard1" x="0" y="0" width="1080" height="1080" style="fill:none;"/>
    <g id="ArtBoard11" serif:id="ArtBoard1">
        <g transform="matrix(1,0,0,0.996455,280.65,22.5038)">
            <g transform="matrix(1,-0,-0,1.00356,-280.65,-22.5839)">
                <path d="M766.398,880.357l23.526,20.595c0,-0 -28.059,13.795 -28.059,13.795c-3.962,1.948 -5.597,6.746 -3.649,10.709c1.948,3.962 6.746,5.597 10.709,3.649l38.827,-19.089c2.401,-1.18 4.053,-3.482 4.402,-6.134c0.35,-2.652 -0.649,-5.303 -2.662,-7.065l-32.555,-28.499c-3.322,-2.908 -8.38,-2.572 -11.288,0.75c-2.909,3.323 -2.573,8.381 0.749,11.289Z" style="fill:white;"/>
                <path d="M476.334,373.625c-3.239,3.236 -6.386,6.596 -9.427,10.105c-30.484,35.172 -40.373,82.403 -43.376,127.291c-0.636,9.502 -0.209,18.974 1.252,28.237c-29.911,16.862 -47.099,37.786 -55.198,60.498c-11.612,32.565 -4.561,69.427 12.262,104.981c32.502,68.69 101.223,132.422 130.598,148.882c96.007,53.798 191.942,45.193 290.816,57.16c4.384,0.53 8.373,-2.598 8.904,-6.981c0.53,-4.383 -2.598,-8.373 -6.981,-8.903c-96.82,-11.719 -190.906,-2.554 -284.918,-55.234c-27.932,-15.652 -93.051,-76.451 -123.956,-141.767c-14.881,-31.45 -21.926,-63.958 -11.654,-92.765c6.657,-18.669 20.572,-35.523 43.836,-49.556c5.662,18.901 15.853,36.384 30.292,50.756c31.037,30.89 72.338,11.996 95.053,-17.638c8.909,-11.621 14.814,-24.742 16.215,-36.595c1.061,-8.98 -0.403,-17.315 -4.626,-24.184c-4.514,-7.344 -12.227,-13.229 -24.211,-16.041c-15.063,-3.534 -37.899,-2.109 -70.498,8.06c-11.307,3.527 -21.554,7.428 -30.817,11.659c-0.704,-6.43 -0.842,-12.958 -0.405,-19.501c2.777,-41.498 11.321,-85.364 39.503,-117.88c2.374,-2.739 4.818,-5.381 7.327,-7.938c57.009,68.077 164.592,131.736 353.889,117.429c4.402,-0.333 7.707,-4.177 7.374,-8.58c-0.333,-4.403 -4.178,-7.707 -8.58,-7.374c-182.745,13.811 -286.485,-47.13 -340.99,-112.501c8.53,-7.472 17.577,-14.337 26.895,-21.089c12.191,-8.835 24.664,-16.824 37.937,-23.946c23.106,-12.398 51.43,-27.746 73.65,-47.623c23.564,-21.079 40.246,-47.203 38.688,-79.813c-0.938,-19.63 -11.357,-37.652 -27.213,-49.294c-29.365,-21.56 -81.288,-20.229 -127.188,-1.63c-45.893,18.595 -85.166,54.08 -90.407,97.887c-2.011,16.813 3.487,49.288 22.112,85.669c6.349,12.403 14.224,25.305 23.842,38.219Zm-33.409,174.189c4.689,17.599 13.824,33.914 27.146,47.174c23.389,23.279 53.95,6.301 71.068,-16.031c5.911,-7.712 10.297,-16.19 12.221,-24.273c1.622,-6.821 1.556,-13.316 -1.564,-18.393c-3.403,-5.535 -10.253,-8.893 -20.865,-9.9c-13.139,-1.247 -31.249,1.265 -55.449,8.814c-12.151,3.791 -22.973,8.008 -32.557,12.609Zm45.216,-185.172c8.706,-7.573 17.904,-14.572 27.383,-21.442c12.776,-9.259 25.851,-17.625 39.761,-25.089c22.109,-11.862 49.287,-26.43 70.547,-45.449c19.916,-17.815 34.691,-39.563 33.374,-67.124c-0.709,-14.83 -8.722,-28.366 -20.701,-37.161c-25.789,-18.935 -71.398,-16.032 -111.709,0.302c-40.318,16.336 -75.925,46.475 -80.529,84.959c-1.8,15.044 3.802,43.923 20.467,76.477c5.759,11.248 12.84,22.891 21.407,34.527Z" style="fill:white;"/>
            </g>
        </g>
    </g>
</svg>
